<?xml version="1.0" standalone="no"?>
<!DOCTYPE svg PUBLIC "-//W3C//DTD SVG 20010904//EN"
 "http://www.w3.org/TR/2001/REC-SVG-20010904/DTD/svg10.dtd">
<svg version="1.0" xmlns="http://www.w3.org/2000/svg"
 width="512.000000pt" height="512.000000pt" viewBox="0 0 512.000000 512.000000"
 preserveAspectRatio="xMidYMid meet">

<g transform="translate(0.000000,512.000000) scale(0.100000,-0.100000)"
fill="#000000" stroke="none">
<path d="M0 2560 l0 -2560 2560 0 2560 0 0 2560 0 2560 -2560 0 -2560 0 0
-2560z m1786 798 c8 -124 20 -113 -136 -123 -58 -4 -144 -11 -191 -16 -150
-16 -452 -39 -512 -39 -64 0 -112 17 -140 48 -14 16 -18 36 -18 93 0 39 4 76
8 80 8 7 201 22 706 54 133 9 247 17 252 19 20 7 25 -12 31 -116z m844 -107
c0 -57 -29 -271 -39 -289 -7 -12 -26 -15 -88 -13 -260 7 -423 -147 -423 -400
0 -103 14 -168 57 -259 72 -151 206 -240 342 -227 74 6 123 32 192 101 52 51
129 180 129 214 0 15 0 15 -181 -8 -251 -32 -237 -32 -248 -12 -20 38 -40 252
-23 252 23 0 513 43 625 54 72 8 135 12 140 9 13 -8 7 -242 -9 -321 -33 -160
-115 -312 -233 -429 -89 -88 -158 -134 -260 -169 -108 -38 -214 -49 -316 -35
-229 32 -372 125 -503 330 -103 161 -142 459 -88 673 27 108 50 157 112 244
99 140 266 253 428 289 77 17 210 31 324 34 l62 1 0 -39z m-1069 -551 c4 -25
8 -83 10 -130 l4 -85 -65 -7 c-36 -5 -158 -19 -271 -33 -236 -29 -299 -31
-338 -11 -49 26 -65 62 -65 144 1 39 3 75 6 78 12 12 654 95 698 90 10 -1 17
-17 21 -46z"/>
</g>
</svg>
