<?xml version="1.0" standalone="no"?>
<!DOCTYPE svg PUBLIC "-//W3C//DTD SVG 20010904//EN"
 "http://www.w3.org/TR/2001/REC-SVG-20010904/DTD/svg10.dtd">
<svg version="1.0" xmlns="http://www.w3.org/2000/svg"
 width="341.000000pt" height="299.000000pt" viewBox="0 0 341.000000 299.000000"
 preserveAspectRatio="xMidYMid meet">

<g transform="translate(0.000000,299.000000) scale(0.100000,-0.100000)"
fill="#000000" stroke="none">
<path d="M1445 2954 c-354 -47 -705 -203 -943 -418 -77 -70 -204 -207 -198
-213 2 -2 57 1 122 6 156 14 869 62 958 64 l70 2 7 -35 c4 -19 9 -74 12 -121
8 -119 8 -120 -134 -131 -63 -5 -235 -20 -384 -34 -148 -13 -343 -27 -432 -31
-140 -5 -168 -4 -207 11 -61 23 -86 57 -86 115 -1 43 -1 45 -16 26 -59 -76
-156 -322 -185 -470 -18 -93 -18 -377 0 -470 127 -645 694 -1135 1424 -1230
674 -87 1355 201 1698 719 32 49 59 93 59 98 0 4 17 8 38 8 l37 1 -27 14 -27
15 34 72 c35 76 74 201 97 303 17 82 17 379 -1 470 -127 645 -694 1135 -1424
1230 -142 18 -355 18 -492 -1z m1085 -801 c0 -69 -43 -373 -55 -392 -2 -5 -57
-11 -122 -14 -180 -9 -272 -42 -368 -129 -164 -150 -193 -453 -68 -707 48 -97
144 -196 228 -237 54 -26 70 -29 160 -29 116 0 161 17 243 90 84 76 202 264
188 301 -4 10 -16 13 -43 9 -296 -40 -465 -56 -477 -45 -20 16 -36 97 -43 217
l-6 101 54 6 c30 3 185 17 344 31 160 13 350 30 423 37 114 10 135 9 143 -3
12 -19 11 -159 -1 -292 -13 -130 -46 -240 -111 -367 -190 -371 -551 -573 -924
-516 -251 38 -436 150 -573 349 -128 186 -177 363 -176 637 1 229 38 373 136
521 74 113 124 167 220 239 193 146 390 201 741 208 77 2 87 0 87 -15z m-1350
-683 c10 -19 32 -291 24 -299 -12 -13 -658 -82 -739 -79 -142 5 -175 41 -175
196 l0 91 53 10 c28 6 153 24 277 40 513 69 544 71 560 41z"/>
</g>
</svg>
